<mxfile host="app.diagrams.net" modified="2022-03-10T04:28:10.490Z" agent="5.0 (Macintosh; Intel Mac OS X 10_15_7) AppleWebKit/537.36 (KHTML, like Gecko) Chrome/98.0.4758.109 Safari/537.36" etag="9zG8J-VJVJebTXAE5lri" version="17.1.0" type="github">
  <diagram id="AIrKXbi-n8twdEOv1HUz" name="Page-1">
    <mxGraphModel dx="386" dy="264" grid="1" gridSize="10" guides="1" tooltips="1" connect="1" arrows="1" fold="1" page="1" pageScale="1" pageWidth="827" pageHeight="1169" math="0" shadow="0">
      <root>
        <mxCell id="0" />
        <mxCell id="1" parent="0" />
        <mxCell id="i7vhHFXDMAg3OrHZk6WA-1" value="" style="ellipse;whiteSpace=wrap;html=1;aspect=fixed;fillColor=#d5e8d4;strokeColor=#82b366;" vertex="1" parent="1">
          <mxGeometry x="120" y="200" width="40" height="40" as="geometry" />
        </mxCell>
        <mxCell id="i7vhHFXDMAg3OrHZk6WA-3" value="" style="ellipse;whiteSpace=wrap;html=1;aspect=fixed;fillColor=#d5e8d4;strokeColor=#82b366;" vertex="1" parent="1">
          <mxGeometry x="120" y="360" width="40" height="40" as="geometry" />
        </mxCell>
        <mxCell id="i7vhHFXDMAg3OrHZk6WA-4" value="" style="ellipse;whiteSpace=wrap;html=1;aspect=fixed;fillColor=#d5e8d4;strokeColor=#82b366;" vertex="1" parent="1">
          <mxGeometry x="240" y="280" width="40" height="40" as="geometry" />
        </mxCell>
        <mxCell id="i7vhHFXDMAg3OrHZk6WA-5" value="" style="ellipse;whiteSpace=wrap;html=1;aspect=fixed;fillColor=#d5e8d4;strokeColor=#82b366;" vertex="1" parent="1">
          <mxGeometry x="360" y="200" width="40" height="40" as="geometry" />
        </mxCell>
        <mxCell id="i7vhHFXDMAg3OrHZk6WA-6" value="" style="ellipse;whiteSpace=wrap;html=1;aspect=fixed;fillColor=#d5e8d4;strokeColor=#82b366;" vertex="1" parent="1">
          <mxGeometry x="480" y="280" width="40" height="40" as="geometry" />
        </mxCell>
        <mxCell id="i7vhHFXDMAg3OrHZk6WA-7" value="" style="ellipse;whiteSpace=wrap;html=1;aspect=fixed;fillColor=#d5e8d4;strokeColor=#82b366;" vertex="1" parent="1">
          <mxGeometry x="360" y="360" width="40" height="40" as="geometry" />
        </mxCell>
        <mxCell id="i7vhHFXDMAg3OrHZk6WA-8" value="" style="endArrow=none;html=1;rounded=0;entryX=0.929;entryY=0.746;entryDx=0;entryDy=0;exitX=0.086;exitY=0.2;exitDx=0;exitDy=0;entryPerimeter=0;exitPerimeter=0;" edge="1" parent="1" source="i7vhHFXDMAg3OrHZk6WA-4" target="i7vhHFXDMAg3OrHZk6WA-1">
          <mxGeometry width="50" height="50" relative="1" as="geometry">
            <mxPoint x="390" y="360" as="sourcePoint" />
            <mxPoint x="440" y="310" as="targetPoint" />
          </mxGeometry>
        </mxCell>
        <mxCell id="i7vhHFXDMAg3OrHZk6WA-9" value="" style="endArrow=none;html=1;rounded=0;entryX=0.916;entryY=0.214;entryDx=0;entryDy=0;exitX=0;exitY=1;exitDx=0;exitDy=0;entryPerimeter=0;" edge="1" parent="1" source="i7vhHFXDMAg3OrHZk6WA-4" target="i7vhHFXDMAg3OrHZk6WA-3">
          <mxGeometry width="50" height="50" relative="1" as="geometry">
            <mxPoint x="253.44000000000005" y="298" as="sourcePoint" />
            <mxPoint x="167.16000000000008" y="239.84000000000003" as="targetPoint" />
          </mxGeometry>
        </mxCell>
        <mxCell id="i7vhHFXDMAg3OrHZk6WA-10" value="" style="endArrow=none;html=1;rounded=0;entryX=0.5;entryY=1;entryDx=0;entryDy=0;exitX=0.5;exitY=0;exitDx=0;exitDy=0;" edge="1" parent="1" source="i7vhHFXDMAg3OrHZk6WA-3" target="i7vhHFXDMAg3OrHZk6WA-1">
          <mxGeometry width="50" height="50" relative="1" as="geometry">
            <mxPoint x="230" y="340" as="sourcePoint" />
            <mxPoint x="280" y="290" as="targetPoint" />
          </mxGeometry>
        </mxCell>
        <mxCell id="i7vhHFXDMAg3OrHZk6WA-11" value="" style="endArrow=none;html=1;rounded=0;entryX=0;entryY=0.5;entryDx=0;entryDy=0;exitX=1;exitY=0.5;exitDx=0;exitDy=0;" edge="1" parent="1" source="i7vhHFXDMAg3OrHZk6WA-4" target="i7vhHFXDMAg3OrHZk6WA-6">
          <mxGeometry width="50" height="50" relative="1" as="geometry">
            <mxPoint x="310" y="360" as="sourcePoint" />
            <mxPoint x="360" y="310" as="targetPoint" />
          </mxGeometry>
        </mxCell>
        <mxCell id="i7vhHFXDMAg3OrHZk6WA-12" value="" style="endArrow=none;html=1;rounded=0;entryX=0.049;entryY=0.798;entryDx=0;entryDy=0;entryPerimeter=0;" edge="1" parent="1" source="i7vhHFXDMAg3OrHZk6WA-4" target="i7vhHFXDMAg3OrHZk6WA-5">
          <mxGeometry width="50" height="50" relative="1" as="geometry">
            <mxPoint x="310" y="360" as="sourcePoint" />
            <mxPoint x="360" y="310" as="targetPoint" />
          </mxGeometry>
        </mxCell>
      </root>
    </mxGraphModel>
  </diagram>
</mxfile>
